<svg width="23" height="22" viewBox="0 0 23 22" fill="none" xmlns="http://www.w3.org/2000/svg">
<g id="vuesax/outline/arrow-right">
<g id="arrow-right">
<path id="Vector" d="M8.66568 18.9474C8.49151 18.9474 8.31734 18.8832 8.17984 18.7457C7.91401 18.4799 7.91401 18.0399 8.17984 17.7741L14.1565 11.7974C14.5965 11.3574 14.5965 10.6424 14.1565 10.2024L8.17984 4.22573C7.91401 3.9599 7.91401 3.5199 8.17984 3.25406C8.44568 2.98823 8.88568 2.98823 9.15151 3.25406L15.1282 9.23073C15.5957 9.69823 15.8615 10.3307 15.8615 10.9999C15.8615 11.6691 15.6048 12.3016 15.1282 12.7691L9.15151 18.7457C9.01401 18.8741 8.83984 18.9474 8.66568 18.9474Z" fill="#6F6F6F"/>
</g>
</g>
</svg>
