<svg width="20" height="20" viewBox="0 0 20 20" fill="none" xmlns="http://www.w3.org/2000/svg">
<g id="vuesax/outline/clock">
<g id="clock">
<path id="Vector" d="M10.0013 18.9577C5.05964 18.9577 1.04297 14.941 1.04297 9.99935C1.04297 5.05768 5.05964 1.04102 10.0013 1.04102C14.943 1.04102 18.9596 5.05768 18.9596 9.99935C18.9596 14.941 14.943 18.9577 10.0013 18.9577ZM10.0013 2.29102C5.7513 2.29102 2.29297 5.74935 2.29297 9.99935C2.29297 14.2493 5.7513 17.7077 10.0013 17.7077C14.2513 17.7077 17.7096 14.2493 17.7096 9.99935C17.7096 5.74935 14.2513 2.29102 10.0013 2.29102Z" fill="white"/>
<path id="Vector_2" d="M13.0909 13.2745C12.9826 13.2745 12.8742 13.2495 12.7742 13.1828L10.1909 11.6411C9.54922 11.2578 9.07422 10.4161 9.07422 9.67448V6.25781C9.07422 5.91615 9.35755 5.63281 9.69922 5.63281C10.0409 5.63281 10.3242 5.91615 10.3242 6.25781V9.67448C10.3242 9.97448 10.5742 10.4161 10.8326 10.5661L13.4159 12.1078C13.7159 12.2828 13.8076 12.6661 13.6326 12.9661C13.5076 13.1661 13.2992 13.2745 13.0909 13.2745Z" fill="white"/>
</g>
</g>
</svg>
