<svg width="22" height="22" viewBox="0 0 22 22" fill="none" xmlns="http://www.w3.org/2000/svg">
<g id="vuesax/outline/link">
<g id="link">
<path id="Vector" d="M11.4585 13.5208H9.16684C8.79101 13.5208 8.47934 13.2092 8.47934 12.8333C8.47934 12.4575 8.79101 12.1458 9.16684 12.1458H11.4585C13.8602 12.1458 15.8127 10.1933 15.8127 7.79167C15.8127 5.39 13.8602 3.4375 11.4585 3.4375H6.87518C4.47351 3.4375 2.52101 5.39 2.52101 7.79167C2.52101 8.8 2.87851 9.78082 3.52017 10.56C3.75851 10.8533 3.72184 11.2842 3.42851 11.5317C3.13517 11.77 2.70434 11.7333 2.45684 11.44C1.60434 10.4133 1.13684 9.12083 1.13684 7.79167C1.13684 4.62917 3.70351 2.0625 6.86601 2.0625H11.4493C14.6118 2.0625 17.1785 4.62917 17.1785 7.79167C17.1785 10.9542 14.621 13.5208 11.4585 13.5208Z" fill="#328EF0"/>
<path id="Vector_2" d="M15.125 19.9378H10.5417C7.37917 19.9378 4.8125 17.3712 4.8125 14.2087C4.8125 11.0462 7.37917 8.47949 10.5417 8.47949H12.8333C13.2092 8.47949 13.5208 8.79116 13.5208 9.16699C13.5208 9.54283 13.2092 9.85449 12.8333 9.85449H10.5417C8.14 9.85449 6.1875 11.807 6.1875 14.2087C6.1875 16.6103 8.14 18.5628 10.5417 18.5628H15.125C17.5267 18.5628 19.4792 16.6103 19.4792 14.2087C19.4792 13.2003 19.1217 12.2195 18.48 11.4403C18.2417 11.147 18.2783 10.7162 18.5717 10.4687C18.865 10.2212 19.2958 10.267 19.5433 10.5603C20.3958 11.587 20.8633 12.8795 20.8633 14.2087C20.8542 17.3712 18.2875 19.9378 15.125 19.9378Z" fill="#328EF0"/>
</g>
</g>
</svg>
