<svg width="24" height="25" viewBox="0 0 24 25" fill="none" xmlns="http://www.w3.org/2000/svg">
<g id="vuesax/outline/sms">
<g id="sms">
<path id="Vector" d="M17 21.6351H7C3.35 21.6351 1.25 19.5351 1.25 15.8851V8.88513C1.25 5.23513 3.35 3.13513 7 3.13513H17C20.65 3.13513 22.75 5.23513 22.75 8.88513V15.8851C22.75 19.5351 20.65 21.6351 17 21.6351ZM7 4.63513C4.14 4.63513 2.75 6.02513 2.75 8.88513V15.8851C2.75 18.7451 4.14 20.1351 7 20.1351H17C19.86 20.1351 21.25 18.7451 21.25 15.8851V8.88513C21.25 6.02513 19.86 4.63513 17 4.63513H7Z" fill="#CECFD1"/>
<path id="Vector_2" d="M11.9998 13.2551C11.1598 13.2551 10.3098 12.9951 9.65978 12.4651L6.52978 9.9651C6.20978 9.7051 6.14978 9.2351 6.40978 8.9151C6.66978 8.5951 7.13978 8.53511 7.45978 8.79511L10.5898 11.2951C11.3498 11.9051 12.6398 11.9051 13.3998 11.2951L16.5298 8.79511C16.8498 8.53511 17.3298 8.5851 17.5798 8.9151C17.8398 9.2351 17.7898 9.7151 17.4598 9.9651L14.3298 12.4651C13.6898 12.9951 12.8398 13.2551 11.9998 13.2551Z" fill="#CECFD1"/>
</g>
</g>
</svg>
