<svg width="24" height="24" viewBox="0 0 24 24" fill="none" xmlns="http://www.w3.org/2000/svg">
<g id="vuesax/outline/menu">
<g id="vuesax/outline/menu_2">
<g id="menu">
<path id="Vector" d="M20 5.75H4C3.59 5.75 3.25 5.41 3.25 5C3.25 4.59 3.59 4.25 4 4.25H20C20.41 4.25 20.75 4.59 20.75 5C20.75 5.41 20.41 5.75 20 5.75Z" fill="#3D3D3D"/>
<path id="Vector_2" d="M20 12.75H4C3.59 12.75 3.25 12.41 3.25 12C3.25 11.59 3.59 11.25 4 11.25H20C20.41 11.25 20.75 11.59 20.75 12C20.75 12.41 20.41 12.75 20 12.75Z" fill="#3D3D3D"/>
<path id="Vector_3" d="M20 19.75H4C3.59 19.75 3.25 19.41 3.25 19C3.25 18.59 3.59 18.25 4 18.25H20C20.41 18.25 20.75 18.59 20.75 19C20.75 19.41 20.41 19.75 20 19.75Z" fill="#3D3D3D"/>
</g>
</g>
</g>
</svg>
