<svg width="22" height="22" viewBox="0 0 22 22" fill="none" xmlns="http://www.w3.org/2000/svg">
<g id="vuesax/outline/danger">
<g id="danger">
<path id="Vector" d="M11 13.5208C10.6242 13.5208 10.3125 13.2092 10.3125 12.8333V8.25C10.3125 7.87417 10.6242 7.5625 11 7.5625C11.3758 7.5625 11.6875 7.87417 11.6875 8.25V12.8333C11.6875 13.2092 11.3758 13.5208 11 13.5208Z" fill="#328EF0"/>
<path id="Vector_2" d="M11.0007 16.4997C10.9457 16.4997 10.8815 16.4905 10.8173 16.4814C10.7623 16.4722 10.7073 16.4539 10.6523 16.4264C10.5973 16.408 10.5423 16.3805 10.4873 16.3439C10.4415 16.3072 10.3957 16.2705 10.3498 16.2339C10.1848 16.0597 10.084 15.8214 10.084 15.583C10.084 15.3447 10.1848 15.1064 10.3498 14.9322C10.3957 14.8955 10.4415 14.8589 10.4873 14.8222C10.5423 14.7855 10.5973 14.758 10.6523 14.7397C10.7073 14.7122 10.7623 14.6939 10.8173 14.6847C10.9365 14.6572 11.0648 14.6572 11.1748 14.6847C11.239 14.6939 11.294 14.7122 11.349 14.7397C11.404 14.758 11.459 14.7855 11.514 14.8222C11.5598 14.8589 11.6057 14.8955 11.6515 14.9322C11.8165 15.1064 11.9173 15.3447 11.9173 15.583C11.9173 15.8214 11.8165 16.0597 11.6515 16.2339C11.6057 16.2705 11.5598 16.3072 11.514 16.3439C11.459 16.3805 11.404 16.408 11.349 16.4264C11.294 16.4539 11.239 16.4722 11.1748 16.4814C11.1198 16.4905 11.0557 16.4997 11.0007 16.4997Z" fill="#328EF0"/>
<path id="Vector_3" d="M16.5556 20.3142H5.44559C3.65809 20.3142 2.29225 19.6633 1.59559 18.49C0.908088 17.3167 0.999755 15.8042 1.87059 14.2367L7.42559 4.245C8.34225 2.595 9.60725 1.6875 11.0006 1.6875C12.3939 1.6875 13.6589 2.595 14.5756 4.245L20.1306 14.2458C21.0014 15.8133 21.1023 17.3167 20.4056 18.4992C19.7089 19.6633 18.3431 20.3142 16.5556 20.3142ZM11.0006 3.0625C10.1389 3.0625 9.29559 3.7225 8.62642 4.91417L3.08059 14.915C2.45725 16.0333 2.35642 17.06 2.78725 17.8025C3.21809 18.545 4.17142 18.9483 5.45475 18.9483H16.5648C17.8481 18.9483 18.7923 18.545 19.2323 17.8025C19.6723 17.06 19.5623 16.0425 18.9389 14.915L13.3748 4.91417C12.7056 3.7225 11.8623 3.0625 11.0006 3.0625Z" fill="#328EF0"/>
</g>
</g>
</svg>
