<svg width="24" height="24" viewBox="0 0 24 24" fill="none" xmlns="http://www.w3.org/2000/svg">
<path fill-rule="evenodd" clip-rule="evenodd" d="M19.5302 3.53034C19.8231 3.23745 20.2979 3.23745 20.5908 3.53034C20.8837 3.82323 20.8837 4.29811 20.5908 4.591L13.1213 12.0605L20.591 19.5303C20.8839 19.8232 20.8839 20.2981 20.591 20.5909C20.2981 20.8838 19.8232 20.8838 19.5304 20.5909L12.0606 13.1212L4.59088 20.5909C4.29798 20.8838 3.82311 20.8838 3.53022 20.5909C3.23732 20.2981 3.23732 19.8232 3.53022 19.5303L11 12.0605L3.53041 4.591C3.23752 4.29811 3.23752 3.82323 3.53041 3.53034C3.8233 3.23745 4.29818 3.23745 4.59107 3.53034L12.0606 10.9999L19.5302 3.53034Z" fill="#3D3D3D"/>
</svg>
