<svg width="24" height="25" viewBox="0 0 24 25" fill="none" xmlns="http://www.w3.org/2000/svg">
<g id="vuesax/outline/call">
<g id="call">
<path id="Vector" d="M17.45 23.1351C16.32 23.1351 15.13 22.8651 13.9 22.3451C12.7 21.8351 11.49 21.1351 10.31 20.2851C9.14 19.4251 8.01 18.4651 6.94 17.4151C5.88 16.3451 4.92 15.2151 4.07 14.0551C3.21 12.8551 2.52 11.6551 2.03 10.4951C1.51 9.25513 1.25 8.05513 1.25 6.92513C1.25 6.14513 1.39 5.40513 1.66 4.71513C1.94 4.00513 2.39 3.34513 3 2.77513C3.77 2.01513 4.65 1.63513 5.59 1.63513C5.98 1.63513 6.38 1.72513 6.72 1.88513C7.11 2.06513 7.44 2.33513 7.68 2.69513L10 5.96513C10.21 6.25513 10.37 6.53513 10.48 6.81513C10.61 7.11513 10.68 7.41513 10.68 7.70513C10.68 8.08513 10.57 8.45513 10.36 8.80513C10.21 9.07513 9.98 9.36513 9.69 9.65513L9.01 10.3651C9.02 10.3951 9.03 10.4151 9.04 10.4351C9.16 10.6451 9.4 11.0051 9.86 11.5451C10.35 12.1051 10.81 12.6151 11.27 13.0851C11.86 13.6651 12.35 14.1251 12.81 14.5051C13.38 14.9851 13.75 15.2251 13.97 15.3351L13.95 15.3851L14.68 14.6651C14.99 14.3551 15.29 14.1251 15.58 13.9751C16.13 13.6351 16.83 13.5751 17.53 13.8651C17.79 13.9751 18.07 14.1251 18.37 14.3351L21.69 16.6951C22.06 16.9451 22.33 17.2651 22.49 17.6451C22.64 18.0251 22.71 18.3751 22.71 18.7251C22.71 19.2051 22.6 19.6851 22.39 20.1351C22.18 20.5851 21.92 20.9751 21.59 21.3351C21.02 21.9651 20.4 22.4151 19.68 22.7051C18.99 22.9851 18.24 23.1351 17.45 23.1351ZM5.59 3.13513C5.04 3.13513 4.53 3.37513 4.04 3.85513C3.58 4.28513 3.26 4.75513 3.06 5.26513C2.85 5.78513 2.75 6.33513 2.75 6.92513C2.75 7.85513 2.97 8.86513 3.41 9.90513C3.86 10.9651 4.49 12.0651 5.29 13.1651C6.09 14.2651 7 15.3351 8 16.3451C9 17.3351 10.08 18.2551 11.19 19.0651C12.27 19.8551 13.38 20.4951 14.48 20.9551C16.19 21.6851 17.79 21.8551 19.11 21.3051C19.62 21.0951 20.07 20.7751 20.48 20.3151C20.71 20.0651 20.89 19.7951 21.04 19.4751C21.16 19.2251 21.22 18.9651 21.22 18.7051C21.22 18.5451 21.19 18.3851 21.11 18.2051C21.08 18.1451 21.02 18.0351 20.83 17.9051L17.51 15.5451C17.31 15.4051 17.13 15.3051 16.96 15.2351C16.74 15.1451 16.65 15.0551 16.31 15.2651C16.11 15.3651 15.93 15.5151 15.73 15.7151L14.97 16.4651C14.58 16.8451 13.98 16.9351 13.52 16.7651L13.25 16.6451C12.84 16.4251 12.36 16.0851 11.83 15.6351C11.35 15.2251 10.83 14.7451 10.2 14.1251C9.71 13.6251 9.22 13.0951 8.71 12.5051C8.24 11.9551 7.9 11.4851 7.69 11.0951L7.57 10.7951C7.51 10.5651 7.49 10.4351 7.49 10.2951C7.49 9.93513 7.62 9.61513 7.87 9.36513L8.62 8.58513C8.82 8.38513 8.97 8.19513 9.07 8.02513C9.15 7.89513 9.18 7.78513 9.18 7.68513C9.18 7.60513 9.15 7.48513 9.1 7.36513C9.03 7.20513 8.92 7.02513 8.78 6.83513L6.46 3.55513C6.36 3.41513 6.24 3.31513 6.09 3.24513C5.93 3.17513 5.76 3.13513 5.59 3.13513ZM13.95 15.3951L13.79 16.0751L14.06 15.3751C14.01 15.3651 13.97 15.3751 13.95 15.3951Z" fill="#CECFD1"/>
</g>
</g>
</svg>
