<svg width="136" height="117" viewBox="0 0 136 117" fill="none" xmlns="http://www.w3.org/2000/svg">
<path d="M79.2581 116.385H12.3796C4.57968 116.385 -1.16449 109.093 0.658584 101.513L22.7597 9.61894C24.0625 4.20471 28.9099 0.385132 34.4806 0.385132H101.359C109.159 0.385132 114.903 7.67743 113.08 15.2574L90.979 107.147C89.6762 112.566 84.8288 116.381 79.2581 116.381V116.385Z" fill="#F9F9F9"/>
<path d="M52.7774 50.6273H133.543C134.9 50.6273 136 51.7271 136 53.0849V88.4847C136 89.8425 134.9 90.9422 133.543 90.9422H52.7774C51.4196 90.9422 50.3198 89.8425 50.3198 88.4847V53.0849C50.3198 51.7271 51.4196 50.6273 52.7774 50.6273Z" fill="#D1E3F3"/>
<path d="M35.4366 35.3851H116.202C117.56 35.3851 118.659 36.4849 118.659 37.8427V73.2425C118.659 74.6003 117.56 75.7 116.202 75.7H35.4366C34.0788 75.7 32.979 74.6003 32.979 73.2425V37.8427C32.979 36.4849 34.0788 35.3851 35.4366 35.3851Z" fill="#2A72FF"/>
<path fill-rule="evenodd" clip-rule="evenodd" d="M52.8263 52.7897C53.2403 53.5072 52.9942 54.4245 52.2767 54.8385L43.9269 59.6564C43.2094 60.0704 42.292 59.8243 41.878 59.1068C41.464 58.3892 41.71 57.4719 42.4276 57.0579L50.7774 52.2401C51.4949 51.8261 52.4122 52.0721 52.8263 52.7897Z" fill="#D1E3F3"/>
<path fill-rule="evenodd" clip-rule="evenodd" d="M41.878 52.7897C42.292 52.0721 43.2094 51.8261 43.9269 52.2401L52.2767 57.0579C52.9942 57.4719 53.2403 58.3892 52.8263 59.1068C52.4122 59.8243 51.4949 60.0704 50.7774 59.6564L42.4276 54.8385C41.71 54.4245 41.464 53.5072 41.878 52.7897Z" fill="#D1E3F3"/>
<path fill-rule="evenodd" clip-rule="evenodd" d="M47.3521 49.6283C48.1805 49.6283 48.8521 50.2999 48.8521 51.1283V60.7682C48.8521 61.5966 48.1805 62.2682 47.3521 62.2682C46.5236 62.2682 45.8521 61.5966 45.8521 60.7682V51.1283C45.8521 50.2999 46.5236 49.6283 47.3521 49.6283Z" fill="#D1E3F3"/>
<path fill-rule="evenodd" clip-rule="evenodd" d="M67.9268 52.7897C68.3409 53.5072 68.0948 54.4245 67.3773 54.8385L59.0275 59.6564C58.31 60.0704 57.3926 59.8243 56.9786 59.1068C56.5646 58.3892 56.8106 57.4719 57.5282 57.0579L65.8779 52.2401C66.5955 51.8261 67.5128 52.0721 67.9268 52.7897Z" fill="#D1E3F3"/>
<path fill-rule="evenodd" clip-rule="evenodd" d="M56.9786 52.7897C57.3926 52.0721 58.31 51.8261 59.0275 52.2401L67.3773 57.0579C68.0948 57.4719 68.3409 58.3892 67.9268 59.1068C67.5128 59.8243 66.5955 60.0704 65.8779 59.6564L57.5282 54.8385C56.8106 54.4245 56.5646 53.5072 56.9786 52.7897Z" fill="#D1E3F3"/>
<path fill-rule="evenodd" clip-rule="evenodd" d="M62.4526 49.6283C63.2811 49.6283 63.9526 50.2999 63.9526 51.1283V60.7682C63.9526 61.5966 63.2811 62.2682 62.4526 62.2682C61.6242 62.2682 60.9526 61.5966 60.9526 60.7682V51.1283C60.9526 50.2999 61.6242 49.6283 62.4526 49.6283Z" fill="#D1E3F3"/>
<path fill-rule="evenodd" clip-rule="evenodd" d="M83.0274 52.7897C83.4415 53.5072 83.1954 54.4245 82.4779 54.8385L74.1281 59.6564C73.4105 60.0704 72.4932 59.8243 72.0792 59.1068C71.6652 58.3892 71.9112 57.4719 72.6288 57.0579L80.9785 52.2401C81.6961 51.8261 82.6134 52.0721 83.0274 52.7897Z" fill="#D1E3F3"/>
<path fill-rule="evenodd" clip-rule="evenodd" d="M72.0792 52.7897C72.4932 52.0721 73.4105 51.8261 74.1281 52.2401L82.4779 57.0579C83.1954 57.4719 83.4415 58.3892 83.0274 59.1068C82.6134 59.8243 81.6961 60.0704 80.9785 59.6564L72.6288 54.8385C71.9112 54.4245 71.6652 53.5072 72.0792 52.7897Z" fill="#D1E3F3"/>
<path fill-rule="evenodd" clip-rule="evenodd" d="M77.5532 49.6283C78.3816 49.6283 79.0532 50.2999 79.0532 51.1283V60.7682C79.0532 61.5966 78.3816 62.2682 77.5532 62.2682C76.7248 62.2682 76.0532 61.5966 76.0532 60.7682V51.1283C76.0532 50.2999 76.7248 49.6283 77.5532 49.6283Z" fill="#D1E3F3"/>
<path fill-rule="evenodd" clip-rule="evenodd" d="M98.6993 52.7897C99.1133 53.5072 98.8673 54.4245 98.1497 54.8385L89.8 59.6564C89.0824 60.0704 88.1651 59.8243 87.7511 59.1068C87.337 58.3892 87.5831 57.4719 88.3006 57.0579L96.6504 52.2401C97.368 51.8261 98.2853 52.0721 98.6993 52.7897Z" fill="#D1E3F3"/>
<path fill-rule="evenodd" clip-rule="evenodd" d="M87.7511 52.7897C88.1651 52.0721 89.0824 51.8261 89.8 52.2401L98.1497 57.0579C98.8673 57.4719 99.1133 58.3892 98.6993 59.1068C98.2853 59.8243 97.368 60.0704 96.6504 59.6564L88.3006 54.8385C87.5831 54.4245 87.337 53.5072 87.7511 52.7897Z" fill="#D1E3F3"/>
<path fill-rule="evenodd" clip-rule="evenodd" d="M93.2251 49.6283C94.0535 49.6283 94.7251 50.2999 94.7251 51.1283V60.7682C94.7251 61.5966 94.0535 62.2682 93.2251 62.2682C92.3967 62.2682 91.7251 61.5966 91.7251 60.7682V51.1283C91.7251 50.2999 92.3967 49.6283 93.2251 49.6283Z" fill="#D1E3F3"/>
<path d="M112.121 30.9295H114.519C115.515 30.9295 116.32 30.1375 116.32 29.1573C116.32 28.1771 115.515 27.3851 114.519 27.3851H106.121C105.125 27.3851 104.32 28.1771 104.32 29.1573C104.32 30.1375 105.125 30.9295 106.121 30.9295H108.519V59.8408H106.121C105.125 59.8408 104.32 60.6328 104.32 61.613C104.32 62.5931 105.125 63.3851 106.121 63.3851H114.519C115.515 63.3851 116.32 62.5931 116.32 61.613C116.32 60.6328 115.515 59.8408 114.519 59.8408H112.121V30.9295Z" fill="#313D46"/>
</svg>
