<svg width="137" height="117" viewBox="0 0 137 117" fill="none" xmlns="http://www.w3.org/2000/svg">
<g id="Group 3">
<path id="Vector" d="M79.5151 116.385H12.6661C4.86966 116.385 -0.871966 109.093 0.950304 101.513L23.0416 9.61894C24.3438 4.20471 29.1891 0.385132 34.7574 0.385132H101.606C109.403 0.385132 115.144 7.67743 113.322 15.2574L91.2309 107.147C89.9286 112.566 85.0834 116.381 79.5151 116.381V116.385Z" fill="#F9F9F9"/>
<path id="Vector_2" d="M75.5509 65.3851H134.671C135.742 65.3851 136.611 66.2489 136.611 67.3154V104.455C136.611 105.521 135.742 106.385 134.671 106.385H75.5509C74.4789 106.385 73.6107 105.521 73.6107 104.455V67.3187C73.6107 66.2522 74.4789 65.3885 75.5509 65.3885V65.3851Z" fill="#D1E3F3"/>
<path id="Vector_3" d="M126.861 50.0468L86.4239 77.0715C85.4007 77.6806 83.7264 77.6806 82.7075 77.0715L42.2708 50.0468C41.2477 49.4335 40.4105 47.9615 40.4105 46.7687V94.9723C40.4105 96.1651 41.383 97.138 42.5753 97.138H126.56C127.753 97.138 128.725 96.1651 128.725 94.9723V46.7687C128.725 47.9615 127.888 49.4335 126.865 50.0468H126.861Z" fill="#2A72FF"/>
<path id="Vector_4" d="M86.4195 77.0715C85.3963 77.6806 83.722 77.6806 82.7031 77.0715L42.2664 50.0469C41.2433 49.4336 40.4061 47.9616 40.4061 46.7687V40.5508C40.4061 39.358 41.3786 38.3851 42.5709 38.3851H126.556C127.748 38.3851 128.721 39.358 128.721 40.5508V46.7687C128.721 47.9616 127.884 49.4336 126.86 50.0469L86.4237 77.0715H86.4195Z" fill="#7FB6FD"/>
<path id="Vector_5" d="M137 43.085C137 49.5482 131.766 54.7848 125.305 54.7848C118.845 54.7848 113.611 49.5482 113.611 43.085C113.611 36.6217 118.845 31.3851 125.305 31.3851C131.766 31.3851 137 36.6217 137 43.085Z" fill="#313D46"/>
</g>
</svg>
