<svg width="84" height="70" viewBox="0 0 84 70" fill="none" xmlns="http://www.w3.org/2000/svg">
<g id="Group 4">
<path id="Vector" d="M48.4989 70H8.14114C3.43432 70 -0.0319895 65.5995 1.06814 61.0254L14.405 5.57213C15.1912 2.30492 18.1164 0 21.478 0H61.8357C66.5425 0 70.0089 4.40053 68.9087 8.97462L55.5719 64.4253C54.7857 67.6951 51.8605 69.9975 48.4989 69.9975V70Z" fill="#F9F9F9"/>
<path id="Vector_2" d="M46.2904 39.2246H81.9661C82.6129 39.2246 83.1369 39.7459 83.1369 40.3894V62.8012C83.1369 63.4447 82.6129 63.966 81.9661 63.966H46.2904C45.6436 63.966 45.1196 63.4447 45.1196 62.8012V40.3914C45.1196 39.7479 45.6436 39.2266 46.2904 39.2266V39.2246Z" fill="#D1E3F3"/>
<g id="Group">
<path id="Vector_3" d="M33.1019 26.0733V57.9159H66.9124V26.0733C66.9124 1.18128 33.1019 1.18128 33.1019 26.0733ZM62.7493 53.4311H37.265V27.2424C37.265 6.76872 62.7493 6.76872 62.7493 27.2424V53.4311Z" fill="#313D46"/>
<path id="Vector_4" d="M72.6049 27.252H27.4127C26.5937 27.252 25.9297 27.9159 25.9297 28.735V57.2695C25.9297 58.0885 26.5937 58.7525 27.4127 58.7525H72.6049C73.4239 58.7525 74.0879 58.0885 74.0879 57.2695V28.735C74.0879 27.9159 73.4239 27.252 72.6049 27.252Z" fill="#2A72FF"/>
<g id="Group_2">
<path id="Vector_5" d="M54.6886 41.4743C54.6886 44.06 52.593 46.1556 50.0073 46.1556C47.4216 46.1556 45.326 44.06 45.326 41.4743C45.326 38.8886 47.4216 36.793 50.0073 36.793C52.593 36.793 54.6886 38.8886 54.6886 41.4743Z" fill="#D1E3F3"/>
<path id="Vector_6" d="M51.0104 45.4406C51.0104 44.8866 50.5613 44.4375 50.0073 44.4375C49.4532 44.4375 49.0041 44.8866 49.0041 45.4406V51.2757C49.0041 51.8297 49.4532 52.2788 50.0073 52.2788C50.5613 52.2788 51.0104 51.8297 51.0104 51.2757V45.4406Z" fill="#D1E3F3"/>
</g>
</g>
</g>
</svg>
