<svg width="90" height="20" viewBox="0 0 90 20" fill="none" xmlns="http://www.w3.org/2000/svg">
<g id="scoutLogo.63a09eaf8ee59345984257cd91dad122 1" clip-path="url(#clip0_108_1932)">
<path id="Vector" d="M44.754 0.683253H43.9752C39.5617 0.677098 35.9994 4.06222 36.0357 8.99218L36.0477 11.0509C36.0689 15.9901 39.6733 19.3691 44.0899 19.3722H44.8748C50.04 19.3722 52.8444 15.9901 52.8143 11.0509L52.8052 8.99833C52.778 4.05914 49.1736 0.680176 44.757 0.680176L44.754 0.683253ZM48.8445 9.7246V10.4539C48.8687 14.0052 46.8702 15.9286 44.8506 15.9286H44.0899C42.0854 15.9286 40.0537 14.0052 40.0386 10.4539V9.7246C40.0084 6.16714 42.0069 4.24994 44.0204 4.24994H44.7812C46.7947 4.24994 48.8204 6.1733 48.8445 9.7246Z" fill="#3786C8"/>
<path id="Vector_2" d="M12.1052 7.94896L6.85246 7.96127C5.31588 7.96127 4.51891 7.60121 4.55212 6.08407C4.55514 4.77618 5.42757 4.79157 7.14226 4.79157H13.8772C15.6372 4.79157 16.7753 4.1607 16.7723 3.00361V0.603252L6.50227 0.590942C2.92196 0.590942 -0.030447 1.54493 -0.000258814 6.23486C0.0208729 9.48457 1.92575 11.7249 5.11362 11.7126H10.3664C11.9361 11.7126 12.6939 12.1003 12.6637 13.6852C12.6576 14.9962 11.7943 15.2147 10.0796 15.2147H3.25403C1.485 15.2147 0.355962 15.8394 0.361999 17.0026L0.374074 19.4122H10.7135C14.5806 19.4122 17.2402 18.3536 17.207 13.5436C17.1828 9.74307 14.8976 7.95204 12.1052 7.95204V7.94896Z" fill="#3786C8"/>
<path id="Vector_3" d="M32.5217 14.7592H27.1845C27.1845 14.7592 22.303 15.227 22.303 9.95853C22.303 4.69006 27.1845 5.15474 27.1845 5.15474H32.5217C34.2606 5.15474 35.3836 4.53926 35.3805 3.39756L35.3745 0.603296H27.1845C27.1845 0.603296 18.0012 -0.107579 18.0012 9.95853C18.0012 20.0246 27.1845 19.3107 27.1845 19.3107H35.3745L35.3805 16.5164C35.3805 15.3778 34.2606 14.7623 32.5217 14.7623V14.7592Z" fill="#3786C8"/>
<g id="Group">
<path id="Vector_4" d="M78.5193 6.4165V19.3815H80.8649C82.3532 19.3815 83.3162 18.8491 83.3162 17.8644V6.4165H78.5193Z" fill="#3786C8"/>
<path id="Vector_5" d="M88.7049 0.65564H74.2961C70.8033 0.65564 70.9392 6.60422 70.9392 6.60422C70.9392 4.76394 72.6026 4.92089 72.6026 4.92089H90.003V2.82519C90.003 1.52962 89.5442 0.683336 88.7079 0.65564H88.7049Z" fill="url(#paint0_linear_108_1932)"/>
<path id="Vector_6" d="M74.296 0.655592H72.2221C72.2221 0.655592 66.3958 0.480181 66.3958 6.81651V9.46921C66.3958 9.46921 66.752 14.7285 62.58 14.7285C58.408 14.7285 58.5529 9.46921 58.5529 9.46921V3.73297C58.5529 1.85269 57.9884 0.643283 56.9469 0.649437L54.0126 0.661747V9.47229C54.0126 9.47229 53.6171 19.363 62.58 19.363C71.5429 19.363 70.9361 9.47229 70.9361 9.47229V6.60725C70.9361 6.60725 70.8003 0.655592 74.296 0.655592Z" fill="url(#paint1_linear_108_1932)"/>
</g>
</g>
<defs>
<linearGradient id="paint0_linear_108_1932" x1="81.502" y1="3.63147" x2="73.9127" y2="3.63147" gradientUnits="userSpaceOnUse">
<stop stop-color="#3786C8"/>
<stop offset="0.27" stop-color="#3283C5"/>
<stop offset="0.54" stop-color="#267CBD"/>
<stop offset="0.82" stop-color="#1171AF"/>
<stop offset="1" stop-color="#0068A4"/>
</linearGradient>
<linearGradient id="paint1_linear_108_1932" x1="64.7928" y1="-0.51689" x2="61.9528" y2="7.64172" gradientUnits="userSpaceOnUse">
<stop offset="0.21" stop-color="#3C9FD9"/>
<stop offset="0.9" stop-color="#3786C8"/>
</linearGradient>
<clipPath id="clip0_108_1932">
<rect width="90" height="18.8182" fill="white" transform="translate(0 0.590942)"/>
</clipPath>
</defs>
</svg>
