<svg width="90" height="20" viewBox="0 0 90 20" fill="none" xmlns="http://www.w3.org/2000/svg">
<g id="scoutLogo.63a09eaf8ee59345984257cd91dad122 1" clip-path="url(#clip0_20_416)">
<path id="Vector" d="M44.754 1.06832H43.9752C39.5617 1.06217 35.9994 4.44729 36.0357 9.37725L36.0477 11.436C36.0689 16.3752 39.6733 19.7542 44.0899 19.7573H44.8748C50.04 19.7573 52.8444 16.3752 52.8143 11.436L52.8052 9.3834C52.778 4.44421 49.1736 1.06525 44.757 1.06525L44.754 1.06832ZM48.8445 10.1097V10.839C48.8687 14.3903 46.8702 16.3137 44.8506 16.3137H44.0899C42.0854 16.3137 40.0537 14.3903 40.0386 10.839V10.1097C40.0084 6.55222 42.0069 4.63501 44.0204 4.63501H44.7812C46.7947 4.63501 48.8204 6.55837 48.8445 10.1097Z" fill="#CECFD1"/>
<path id="Vector_2" d="M12.1052 8.33403L6.85246 8.34634C5.31588 8.34634 4.51891 7.98629 4.55212 6.46914C4.55514 5.16125 5.42757 5.17664 7.14226 5.17664H13.8772C15.6372 5.17664 16.7753 4.54577 16.7723 3.38868V0.988323L6.50227 0.976013C2.92196 0.976013 -0.030447 1.93 -0.000258814 6.61993C0.0208729 9.86964 1.92575 12.11 5.11362 12.0977H10.3664C11.9361 12.0977 12.6939 12.4854 12.6637 14.0703C12.6576 15.3812 11.7943 15.5997 10.0796 15.5997H3.25403C1.485 15.5997 0.355962 16.2244 0.361999 17.3877L0.374074 19.7973H10.7135C14.5806 19.7973 17.2402 18.7387 17.207 13.9287C17.1828 10.1281 14.8976 8.33711 12.1052 8.33711V8.33403Z" fill="#CECFD1"/>
<path id="Vector_3" d="M32.5217 15.1443H27.1845C27.1845 15.1443 22.303 15.612 22.303 10.3435C22.303 5.07507 27.1845 5.53975 27.1845 5.53975H32.5217C34.2606 5.53975 35.3836 4.92427 35.3805 3.78257L35.3745 0.988305H27.1845C27.1845 0.988305 18.0012 0.277431 18.0012 10.3435C18.0012 20.4097 27.1845 19.6957 27.1845 19.6957H35.3745L35.3805 16.9014C35.3805 15.7628 34.2606 15.1473 32.5217 15.1473V15.1443Z" fill="#CECFD1"/>
<g id="Group">
<path id="Vector_4" d="M78.5193 6.80151V19.7665H80.8649C82.3532 19.7665 83.3162 19.2341 83.3162 18.2494V6.80151H78.5193Z" fill="#CECFD1"/>
<path id="Vector_5" d="M88.7049 1.04065H74.2961C70.8033 1.04065 70.9392 6.98923 70.9392 6.98923C70.9392 5.14895 72.6026 5.3059 72.6026 5.3059H90.003V3.2102C90.003 1.91463 89.5442 1.06835 88.7079 1.04065H88.7049Z" fill="#CECFD1"/>
<path id="Vector_6" d="M74.296 1.04066H72.2221C72.2221 1.04066 66.3958 0.865252 66.3958 7.20158V9.85428C66.3958 9.85428 66.752 15.1135 62.58 15.1135C58.408 15.1135 58.5529 9.85428 58.5529 9.85428V4.11804C58.5529 2.23776 57.9884 1.02835 56.9469 1.03451L54.0126 1.04682V9.85736C54.0126 9.85736 53.6171 19.7481 62.58 19.7481C71.5429 19.7481 70.9361 9.85736 70.9361 9.85736V6.99232C70.9361 6.99232 70.8003 1.04066 74.296 1.04066Z" fill="#CECFD1"/>
</g>
</g>
<defs>
<clipPath id="clip0_20_416">
<rect width="90" height="18.8182" fill="white" transform="translate(0 0.976013)"/>
</clipPath>
</defs>
</svg>
