<svg width="22" height="23" viewBox="0 0 22 23" fill="none" xmlns="http://www.w3.org/2000/svg">
<g id="vuesax/outline/search-normal">
<g id="search-normal">
<path id="Vector" d="M10.5417 20.4372C5.36254 20.4372 1.14587 16.2205 1.14587 11.0413C1.14587 5.86217 5.36254 1.64551 10.5417 1.64551C15.7209 1.64551 19.9375 5.86217 19.9375 11.0413C19.9375 16.2205 15.7209 20.4372 10.5417 20.4372ZM10.5417 3.02051C6.11421 3.02051 2.52087 6.62301 2.52087 11.0413C2.52087 15.4597 6.11421 19.0622 10.5417 19.0622C14.9692 19.0622 18.5625 15.4597 18.5625 11.0413C18.5625 6.62301 14.9692 3.02051 10.5417 3.02051Z" fill="#6F6F6F"/>
<path id="Vector_2" d="M20.1666 21.3545C19.9924 21.3545 19.8183 21.2903 19.6808 21.1528L17.8474 19.3195C17.5816 19.0536 17.5816 18.6136 17.8474 18.3478C18.1133 18.082 18.5533 18.082 18.8191 18.3478L20.6524 20.1811C20.9183 20.447 20.9183 20.887 20.6524 21.1528C20.5149 21.2903 20.3408 21.3545 20.1666 21.3545Z" fill="#6F6F6F"/>
</g>
</g>
</svg>
